<svg width="58" height="56" viewBox="0 0 58 56" fill="none" xmlns="http://www.w3.org/2000/svg">
<g clip-path="url(#clip0_1_7876)">
<path d="M49.8208 23.5506C49.8331 23.1804 49.7058 22.8182 49.4617 22.529C49.3524 22.3967 49.2121 22.2904 49.0519 22.2186C48.8916 22.1467 48.7159 22.1114 48.5387 22.1153C47.412 22.1153 46.163 22.9009 44.7917 24.4722C43.4203 26.0434 42.5136 27.7113 42.0715 29.4757C44.071 29.1044 45.9346 28.2476 47.4803 26.9889C49.0417 25.7293 49.8219 24.5832 49.8208 23.5506Z" fill="#246AA3"/>
<path d="M50.1247 0.5H7.8753C5.78664 0.5 3.78353 1.2868 2.30662 2.68731C0.829717 4.08783 0 5.98733 0 7.96796L0 48.032C0 50.0127 0.829717 51.9122 2.30662 53.3127C3.78353 54.7132 5.78664 55.5 7.8753 55.5H50.1247C52.2134 55.5 54.2165 54.7132 55.6934 53.3127C57.1703 51.9122 58 50.0127 58 48.032V7.96796C58 5.98733 57.1703 4.08783 55.6934 2.68731C54.2165 1.2868 52.2134 0.5 50.1247 0.5ZM30.2994 37.3633C29.7807 38.2226 29.3407 38.6523 28.9795 38.6523C27.7741 38.6523 26.7865 38.4407 26.0168 38.0175C25.2472 37.5943 24.5027 36.8052 23.7834 35.6502C23.0641 34.4971 22.4131 33.0424 21.8303 31.2859C21.2476 29.5294 20.901 28.2649 20.7908 27.4922C20.6616 27.6913 19.6777 29.633 17.8391 33.3172C17.6816 33.6368 17.5934 33.8146 17.5682 33.8519C15.3631 38.0618 13.6668 40.1673 12.4792 40.1683C10.6143 40.1683 8.98309 37.9737 7.58549 33.5845C6.18788 29.1954 5.48593 25.5356 5.47963 22.6052C5.47963 21.5507 5.74214 20.6978 6.26716 20.0466C6.79218 19.3954 7.53824 19.0718 8.50532 19.0758C9.1133 19.0758 9.65354 19.3247 10.1261 19.8226C10.5986 20.3205 10.8348 20.7964 10.8348 21.2505L10.6647 23.6805C10.6143 24.4174 10.5886 25.1537 10.5876 25.8896C10.5876 27.192 10.8726 28.9201 11.4428 31.0738C12.013 33.2276 12.4141 34.3049 12.6462 34.3059C12.8142 34.3059 13.4678 33.2106 14.6071 31.02C16.0971 28.1603 17.3015 25.9996 18.2203 24.5379H18.2014C19.494 22.2049 20.6396 20.6764 21.6382 19.9525C22.4782 20.0392 23.155 20.2786 23.6684 20.6709C24.1819 21.0633 24.4376 21.5238 24.4355 22.0525C24.4427 22.3602 24.4232 22.6679 24.3772 22.9726C24.3279 23.1593 24.3015 23.3507 24.2984 23.5431C24.2984 27.2512 25.3795 30.5869 27.5415 33.5502C27.6848 33.6846 27.8108 33.6054 27.9211 33.3097C28.0313 33.014 28.2991 32.1074 28.7275 30.5839C29.5171 27.761 30.4097 25.3026 31.4051 23.2086C32.4006 21.1145 33.217 19.8181 33.8543 19.3193C34.4537 18.8314 35.2192 18.566 36.009 18.5725C36.4921 18.5868 36.9519 18.7727 37.2973 19.0933C37.6427 19.4139 37.8485 19.8458 37.8739 20.3035C37.8739 20.8193 37.7573 21.2246 37.5242 21.5193C35.8547 23.6312 34.3725 26.5532 33.0778 30.2852C31.7443 34.1446 30.8181 36.504 30.2994 37.3633ZM51.7045 37.317C49.4395 39.0914 46.8827 39.9786 44.0339 39.9786C41.8467 39.9786 40.1246 39.3249 38.8677 38.0175C37.6109 36.7101 36.9808 34.8899 36.9777 32.5569C36.9777 29.1187 38.2593 25.8955 40.8224 22.8874C43.3855 19.8793 46.1241 18.3758 49.0379 18.3768C50.487 18.3768 51.652 18.8124 52.533 19.6837C52.962 20.0926 53.301 20.5784 53.53 21.1128C53.7591 21.6472 53.8736 22.2195 53.867 22.7963C53.867 24.9322 52.786 26.9669 50.624 28.9006C48.462 30.8343 45.6888 32.1711 42.3045 32.9109C41.9171 32.9976 41.7233 33.2186 41.7233 33.5741C41.7233 34.1646 41.9979 34.7261 42.5471 35.2589C43.0963 35.7916 43.8313 36.0589 44.7522 36.0609C47.3542 36.0609 49.9373 34.7899 52.5015 32.2478C52.9929 31.7579 53.4717 31.5124 53.9379 31.5114C54.715 31.5114 55.1035 31.9227 55.1035 32.7451C55.1035 34.0197 53.9705 35.5436 51.7045 37.317Z" fill="#246AA3"/>
</g>
<defs>
<clipPath id="clip0_1_7876">
<rect width="58" height="55" fill="white" transform="translate(0 0.5)"/>
</clipPath>
</defs>
</svg>
